<svg width="230" height="232" viewBox="0 0 230 232" fill="none" xmlns="http://www.w3.org/2000/svg">
<circle cx="120.896" cy="115.705" r="87.4718" fill="#FFCC17"/>
<path d="M182.284 58.864C179.017 57.127 179.379 54.9537 179.379 54.9537L182.284 58.864C182.871 59.1762 183.576 59.4743 184.421 59.7432C189.966 61.5078 199.293 49.4079 199.293 49.4079C199.293 49.4079 197.277 47.8953 197.529 44.6183C197.781 41.3412 199.545 39.829 204.335 40.0809C209.124 40.3329 218.199 49.4079 214.922 54.9537C211.645 60.4994 208.477 57.3256 204.335 54.9537C201.058 54.9537 187.69 61.0036 189.714 66.2973C191.738 71.591 192.487 72.5993 192.487 72.5993L182.284 58.864Z" fill="#FFCC17"/>
<path d="M174.948 177.493C176.954 174.384 179.089 174.928 179.089 174.928L174.948 177.493C174.588 178.052 174.231 178.729 173.892 179.549C171.667 184.926 182.939 195.238 182.939 195.238C182.939 195.238 184.616 193.356 187.86 193.883C191.105 194.41 192.463 196.295 191.809 201.047C191.155 205.798 181.348 214.077 176.098 210.345C170.848 206.613 174.277 203.723 176.989 199.795C177.265 196.53 172.361 182.701 166.916 184.272C161.471 185.843 160.403 186.504 160.403 186.504L174.948 177.493Z" fill="#FFCC17"/>
<path d="M188.068 140.011C188.127 136.311 190.226 135.644 190.226 135.644L188.068 140.011C188.057 140.676 188.113 141.439 188.258 142.313C189.213 148.054 204.233 150.848 204.233 150.848C204.233 150.848 204.661 148.363 207.693 147.096C210.725 145.828 212.875 146.71 214.832 151.089C216.789 155.468 212.842 167.68 206.413 167.288C199.983 166.895 201.366 162.629 201.591 157.862C200.099 154.944 188.625 145.798 184.834 150.011C181.043 154.223 180.486 155.349 180.486 155.349L188.068 140.011Z" fill="#FFCC17"/>
<path d="M120.775 196.323C124.408 195.621 125.492 197.539 125.492 197.539L120.775 196.323C120.122 196.449 119.387 196.66 118.56 196.981C113.137 199.093 113.485 214.367 113.485 214.367C113.485 214.367 116.004 214.276 117.867 216.984C119.73 219.692 119.308 221.977 115.424 224.79C111.54 227.604 98.7776 226.247 97.8421 219.873C96.9066 213.5 101.366 213.978 106.078 213.221C108.627 211.161 115.225 198.055 110.324 195.209C105.423 192.363 104.207 192.049 104.207 192.049L120.775 196.323Z" fill="#FFCC17"/>
<path d="M71.5445 169.247C74.9754 170.632 74.8428 172.831 74.8428 172.831L71.5445 169.247C70.9278 168.997 70.1959 168.775 69.3274 168.596C63.6273 167.422 55.6186 180.432 55.6186 180.432C55.6186 180.432 57.7827 181.725 57.8751 185.01C57.9676 188.296 56.3711 189.984 51.5815 190.235C46.7919 190.486 36.8167 182.411 39.495 176.553C42.1733 170.694 45.6566 173.519 50.0241 175.444C53.2832 175.101 65.9437 167.685 63.3766 162.632C60.8096 157.579 59.9591 156.655 59.9591 156.655L71.5445 169.247Z" fill="#FFCC17"/>
<path d="M38.1671 136.385C40.3886 139.344 39.1385 141.158 39.1385 141.158L38.1671 136.385C37.7678 135.853 37.2563 135.284 36.6052 134.682C32.3319 130.731 18.7524 137.731 18.7524 137.731C18.7524 137.731 19.9369 139.956 18.3183 142.817C16.6997 145.677 14.4603 146.298 10.2301 144.038C5.99988 141.778 1.63243 129.71 6.95278 126.078C12.2731 122.447 13.7957 126.665 16.54 130.57C19.5075 131.96 34.179 132.153 34.5923 126.501C35.0055 120.849 34.755 119.618 34.755 119.618L38.1671 136.385Z" fill="#FFCC17"/>
<path d="M48.4745 80.6871C49.0853 84.3363 47.1405 85.372 47.1405 85.372L48.4745 80.6871C48.3647 80.0311 48.1724 79.2906 47.8713 78.4566C45.8952 72.9826 30.6179 72.9487 30.6179 72.9487C30.6179 72.9487 30.6455 75.4695 27.8922 77.2644C25.1389 79.0593 22.8649 78.58 20.1492 74.6268C17.4335 70.6736 19.1089 57.9495 25.5036 57.1734C31.8983 56.3973 31.309 60.8431 31.9487 65.573C33.9436 68.1729 46.8808 75.0952 49.8486 70.267C52.8163 65.4389 53.1603 64.2308 53.1603 64.2308L48.4745 80.6871Z" fill="#FFCC17"/>
<path d="M82.6719 53.7381C80.2741 56.556 78.2291 55.7356 78.2291 55.7356L82.6719 53.7381C83.1029 53.2316 83.5454 52.6075 83.9894 51.8399C86.9035 46.8023 77.0883 35.095 77.0883 35.095C77.0883 35.095 75.1779 36.74 72.0314 35.7902C68.8849 34.8404 67.7868 32.7924 69.0612 28.1686C70.3356 23.5449 81.1473 16.63 85.8602 21.0213C90.573 25.4126 86.7929 27.8257 83.5871 31.3618C82.8835 34.5624 85.9224 48.917 91.5272 48.0769C97.1319 47.2368 98.2775 46.7217 98.2775 46.7217L82.6719 53.7381Z" fill="#FFCC17"/>
<path d="M137.485 35.274C133.838 35.899 132.795 33.9582 132.795 33.9582L137.485 35.274C138.14 35.1617 138.88 34.9665 139.713 34.6621C145.179 32.6649 145.154 17.3875 145.154 17.3875C145.154 17.3875 142.633 17.425 140.828 14.6786C139.022 11.9322 139.493 9.65648 143.435 6.92544C147.378 4.1944 160.108 5.82045 160.909 12.2121C161.71 18.6037 157.262 18.0317 152.535 18.6897C149.943 20.6947 143.071 33.6586 147.91 36.6077C152.75 39.5567 153.959 39.896 153.959 39.896L137.485 35.274Z" fill="#FFCC17"/>
<path d="M196.664 111.071C193.397 109.334 193.759 107.161 193.759 107.161L196.664 111.071C197.252 111.383 197.956 111.682 198.801 111.95C204.347 113.715 213.674 101.615 213.674 101.615C213.674 101.615 211.657 100.103 211.909 96.8255C212.161 93.5485 213.926 92.0363 218.715 92.2882C223.505 92.5402 232.58 101.615 229.303 107.161C226.026 112.707 222.857 109.533 218.715 107.161C215.438 107.161 202.071 113.211 204.095 118.505C206.119 123.798 206.868 124.807 206.868 124.807L196.664 111.071Z" fill="#FFCC17"/>
</svg>
