<svg width="20" height="20" viewBox="0 0 20 20" fill="none" xmlns="http://www.w3.org/2000/svg">
<path d="M19.5 17V10.8768C19.5 9.45358 19.5 8.74196 19.3179 8.08573C19.1565 7.5044 18.8913 6.95707 18.535 6.4702C18.1328 5.92061 17.5742 5.47966 16.4572 4.59778L16.4572 4.59776L14.9572 3.41354C13.1862 2.01542 12.3007 1.31635 11.3207 1.04796C10.4562 0.811184 9.54384 0.811184 8.67928 1.04796C7.69929 1.31635 6.81381 2.01542 5.04285 3.41354L3.54285 4.59775C2.42577 5.47965 1.86724 5.9206 1.46504 6.4702C1.10875 6.95707 0.843509 7.5044 0.68215 8.08573C0.5 8.74196 0.5 9.45358 0.5 10.8768V17C0.5 17.9319 0.5 18.3978 0.652241 18.7654C0.855229 19.2554 1.24458 19.6448 1.73463 19.8478C2.10218 20 2.56812 20 3.5 20H4.375C4.49106 20 4.5491 20 4.59814 19.9976C5.62554 19.9471 6.44712 19.1255 6.49759 18.0981C6.5 18.0491 6.5 17.9911 6.5 17.875V15C6.5 13.067 8.067 11.5 10 11.5C11.933 11.5 13.5 13.067 13.5 15V17.875C13.5 17.9911 13.5 18.0491 13.5024 18.0981C13.5529 19.1255 14.3745 19.9471 15.4019 19.9976C15.4509 20 15.5089 20 15.625 20H16.5C17.4319 20 17.8978 20 18.2654 19.8478C18.7554 19.6448 19.1448 19.2554 19.3478 18.7654C19.5 18.3978 19.5 17.9319 19.5 17Z" fill="#5C5C5C"/>
</svg>
