<svg width="22" height="22" viewBox="0 0 22 22" fill="none" xmlns="http://www.w3.org/2000/svg">
<path fill-rule="evenodd" clip-rule="evenodd" d="M11 22C17.0751 22 22 17.0751 22 11C22 4.92487 17.0751 0 11 0C4.92487 0 0 4.92487 0 11C0 17.0751 4.92487 22 11 22ZM12.4277 5.97656C12.4941 5.81055 12.5329 5.6307 12.5439 5.43701C12.555 5.24333 12.5329 5.06071 12.4775 4.88916C12.4222 4.71761 12.3392 4.5682 12.2285 4.44092C12.1234 4.31364 11.9933 4.21403 11.8384 4.14209C11.6834 4.07015 11.5146 4.03418 11.332 4.03418C11.1605 4.03418 10.9945 4.07015 10.834 4.14209C10.6735 4.21403 10.5296 4.31364 10.4023 4.44092C10.2806 4.5682 10.1782 4.71761 10.0952 4.88916C10.0177 5.06071 9.97347 5.24333 9.9624 5.43701C9.95133 5.6307 9.97347 5.81055 10.0288 5.97656C10.0897 6.14258 10.1755 6.28923 10.2861 6.4165C10.3968 6.54378 10.5296 6.64339 10.6846 6.71533C10.8451 6.78727 11.0221 6.82324 11.2158 6.82324C11.404 6.82324 11.5783 6.78727 11.7388 6.71533C11.8993 6.64339 12.0376 6.54378 12.1538 6.4165C12.27 6.28923 12.3613 6.14258 12.4277 5.97656ZM12.2617 10.9819C12.2894 10.6997 12.3032 10.4673 12.3032 10.2847C12.3032 9.98584 12.2756 9.71468 12.2202 9.47119C12.1704 9.2277 12.0819 9.02018 11.9546 8.84863C11.8328 8.67708 11.6724 8.54427 11.4731 8.4502C11.2739 8.35612 11.0277 8.30908 10.7344 8.30908C10.3525 8.30908 10.0094 8.40316 9.70508 8.59131C9.40072 8.77393 9.13786 9.00081 8.9165 9.27197C8.69515 9.54313 8.51807 9.83366 8.38525 10.1436C8.25244 10.4479 8.16113 10.7218 8.11133 10.9653L9.03271 11.2393C9.17659 10.7301 9.31771 10.3787 9.45605 10.1851C9.5944 9.98584 9.72721 9.88623 9.85449 9.88623C9.91536 9.88623 9.97347 9.9139 10.0288 9.96924C10.0841 10.0246 10.1118 10.1463 10.1118 10.3345C10.1118 10.5116 10.098 10.7274 10.0703 10.9819C10.0426 11.231 10.0094 11.5021 9.9707 11.7954C9.93197 12.0887 9.8877 12.3931 9.83789 12.7085C9.78809 13.0184 9.74382 13.3283 9.70508 13.6382C9.66634 13.9425 9.63314 14.2358 9.60547 14.5181C9.5778 14.8003 9.56396 15.0521 9.56396 15.2734C9.56396 15.5723 9.58887 15.8407 9.63867 16.0786C9.69401 16.3166 9.78255 16.5186 9.9043 16.6846C10.0316 16.8506 10.1976 16.9751 10.4023 17.0581C10.6126 17.1466 10.8755 17.1909 11.1909 17.1909C11.5728 17.1909 11.9131 17.0996 12.2119 16.917C12.5107 16.7288 12.7681 16.4992 12.9839 16.228C13.1997 15.9569 13.3713 15.6691 13.4985 15.3647C13.6313 15.0549 13.7227 14.7782 13.7725 14.5347L12.8511 14.2607C12.7072 14.7699 12.5661 15.124 12.4277 15.3232C12.2894 15.5169 12.1566 15.6138 12.0293 15.6138C11.9684 15.6138 11.9103 15.5861 11.855 15.5308C11.7996 15.4754 11.772 15.3537 11.772 15.1655C11.772 15.0382 11.783 14.8556 11.8052 14.6177C11.8328 14.3797 11.866 14.1113 11.9048 13.8125C11.9491 13.5137 11.9933 13.1982 12.0376 12.8662C12.0819 12.5286 12.1234 12.1994 12.1621 11.8784C12.2064 11.5575 12.2396 11.2586 12.2617 10.9819Z" fill="#5C5C5C"/>
</svg>
