<svg width="411" height="149" viewBox="0 0 411 149" fill="none" xmlns="http://www.w3.org/2000/svg">
<path opacity="0.2" fill-rule="evenodd" clip-rule="evenodd" d="M135.645 10.8284C135.725 10.3226 135.767 9.80281 135.767 9.27272C135.767 4.15108 131.853 0 127.024 0C124.588 0 122.385 1.05643 120.8 2.76053C118.67 2.30324 116.449 2.0606 114.166 2.0606C104.961 2.0606 96.7641 5.99982 91.4915 12.1312C90.4054 11.618 89.2024 11.3333 87.9365 11.3333C83.942 11.3333 80.5732 14.1741 79.5284 18.0545C78.7957 18.1917 78.0733 18.3551 77.3621 18.5417C74.3172 13.574 69.1329 10.303 63.2496 10.303C56.2123 10.303 50.1753 14.9823 47.6032 21.6494C43.3959 21.8081 39.5283 23.3349 36.4083 25.8089C36.1022 25.7744 35.7914 25.7566 35.4768 25.7566C30.6479 25.7566 26.7335 29.9077 26.7335 35.0293C26.7335 37.312 27.5118 39.4035 28.8026 41.0189C28.7947 41.2531 2.75582 38.2649 -5.8076 53.1147C-14.371 67.9635 -29.6772 147.35 2.75582 148.492C35.1887 149.635 324.738 148.492 423.507 148.492C431.744 148.492 438.35 25.1295 383.666 32.9688C383.666 24.9298 377.743 18.3252 370.172 17.5833C369.098 8.84808 361.042 2.0606 351.264 2.0606C343.404 2.0606 336.657 6.44686 333.755 12.7043C327.702 13.6002 322.283 16.217 318.12 19.9864C316.56 18.4521 314.471 17.5142 312.177 17.5142C309.837 17.5142 307.712 18.4885 306.143 20.076C305.584 19.376 304.987 18.7031 304.356 18.0583C303.785 13.9781 300.945 10.6754 297.231 9.62456C294.63 5.09552 289.858 2.0606 284.403 2.0606C278.119 2.0606 272.742 6.08849 270.546 11.7878C264.882 14.2357 260.232 18.3196 257.331 23.3703C255.275 22.2616 252.937 21.6354 250.458 21.6354C247.61 21.6354 244.949 22.4632 242.685 23.8985C239.924 21.9816 236.772 20.509 233.358 19.5981C232.395 12.0258 226.142 6.18181 218.572 6.18181C214.602 6.18181 210.995 7.78792 208.323 10.4075C207.635 10.3385 206.936 10.303 206.228 10.303C197.258 10.303 189.74 16.0136 187.727 23.7007C187.551 23.6979 187.376 23.696 187.198 23.696C186.218 23.696 185.249 23.7408 184.293 23.8276C182.889 20.7087 179.89 18.552 176.415 18.5445C175.215 14.9431 171.976 12.3636 168.169 12.3636C163.34 12.3636 159.426 16.5147 159.426 21.6354C159.426 21.6811 159.426 21.7259 159.427 21.7717C159.429 21.8771 159.431 21.9816 159.436 22.0862C155.395 23.1211 152.003 25.863 150.014 29.5316C148.144 27.0996 145.584 25.2648 142.639 24.3484C141.779 19.1978 139.282 14.539 135.645 10.8284Z" fill="url(#paint0_radial)"/>
<defs>
<radialGradient id="paint0_radial" cx="0" cy="0" r="1" gradientUnits="userSpaceOnUse" gradientTransform="translate(205.995 -83.9547) rotate(90) scale(221.024 1005.42)">
<stop stop-color="#3EB366" stop-opacity="0.57"/>
<stop offset="1" stop-color="#3EB366" stop-opacity="0"/>
</radialGradient>
</defs>
</svg>
